<svg width="2560" height="380" xmlns="http://www.w3.org/2000/svg" xmlns:xlink="http://www.w3.org/1999/xlink"><defs><path id="a" d="M0 0h2560v380H0z"/><linearGradient x1="50%" y1="0%" x2="50%" y2="100%" id="b"><stop stop-color="#EBEBEB" stop-opacity=".24" offset="0%"/><stop stop-color="#EBEBEB" stop-opacity="0" offset="100%"/></linearGradient><linearGradient x1="15.49%" y1="87.73%" x2="72.73%" y2="17.68%" id="d"><stop stop-color="#EBEBEB" stop-opacity=".2" offset="0%"/><stop stop-color="#FFF" stop-opacity=".5" offset="100%"/></linearGradient><linearGradient x1="82.44%" y1="0%" x2="22.44%" y2="24.63%" id="e"><stop stop-color="#FFF" stop-opacity=".5" offset="0%"/><stop stop-color="#F1F1F1" stop-opacity=".1" offset="100%"/></linearGradient><linearGradient x1="100%" y1="50%" x2="43.9%" y2="25.84%" id="f"><stop stop-color="#EBEBEB" stop-opacity=".28" offset="0%"/><stop stop-color="#F1F1F1" stop-opacity=".1" offset="100%"/></linearGradient><linearGradient x1="73.88%" y1="67.24%" x2="41.03%" y2="-35.19%" id="g"><stop stop-color="#EBEBEB" stop-opacity=".28" offset="0%"/><stop stop-color="#F1F1F1" stop-opacity=".1" offset="100%"/></linearGradient><linearGradient x1="0%" y1="100%" x2="84.96%" y2="36.7%" id="h"><stop stop-color="#EBEBEB" stop-opacity=".2" offset="0%"/><stop stop-color="#EBEBEB" stop-opacity=".23" offset="100%"/></linearGradient><linearGradient x1="21.18%" y1="4.95%" x2="68.48%" y2="78.53%" id="i"><stop stop-color="#EBEBEB" stop-opacity=".28" offset="0%"/><stop stop-color="#F1F1F1" stop-opacity=".1" offset="100%"/></linearGradient><linearGradient x1="25.09%" y1="39.29%" x2="88.5%" y2="45.97%" id="j"><stop stop-color="#FFF" stop-opacity=".5" offset="0%"/><stop stop-color="#F1F1F1" stop-opacity=".1" offset="100%"/></linearGradient><linearGradient x1="54.43%" y1="39.85%" x2="27.39%" y2="72.36%" id="k"><stop stop-color="#EBEBEB" stop-opacity=".2" offset="0%"/><stop stop-color="#F1F1F1" stop-opacity=".1" offset="100%"/></linearGradient><linearGradient x1="82.44%" y1="0%" x2="31.04%" y2="100%" id="l"><stop stop-color="#FFF" stop-opacity=".5" offset="0%"/><stop stop-color="#F1F1F1" stop-opacity=".1" offset="100%"/></linearGradient><linearGradient x1="41.5%" y1="8.88%" x2="31.04%" y2="100%" id="m"><stop stop-color="#FFF" stop-opacity=".5" offset="0%"/><stop stop-color="#F1F1F1" stop-opacity=".1" offset="100%"/></linearGradient><linearGradient x1="72.62%" y1="57.47%" x2="14.58%" y2="34.22%" id="n"><stop stop-color="#EBEBEB" stop-opacity=".28" offset="0%"/><stop stop-color="#FFF" stop-opacity=".5" offset="100%"/></linearGradient><linearGradient x1="36.51%" y1="31.82%" x2="23.66%" y2="100%" id="o"><stop stop-color="#FFF" stop-opacity=".5" offset="0%"/><stop stop-color="#F1F1F1" stop-opacity=".1" offset="100%"/></linearGradient></defs><g fill="none" fill-rule="evenodd"><mask id="c" fill="#fff"><use xlink:href="#a"/></mask><path fill="url(#b)" mask="url(#c)" d="M0 0h2560v368H0z"/><path fill-opacity=".28" fill="#EBEBEB" mask="url(#c)" d="M1011 114l-152.79 80.73L735-85zM2231 147l-113 95-74-290z"/><path fill="url(#d)" mask="url(#c)" d="M735-85l123.21 279.73L478 336z"/><path fill="url(#e)" mask="url(#c)" d="M1011 114l303-77-251.69 338.56z"/><path fill="url(#f)" mask="url(#c)" d="M1062.31 375.56l-204.1-180.83L1011 114z"/><path fill="url(#g)" mask="url(#c)" d="M2357 356l-239-114 113-95z"/><path fill="url(#h)" mask="url(#c)" d="M1372.13 243.64l-309.82 131.92L1314 37z"/><path fill="url(#i)" mask="url(#c)" d="M2118 242l-451.56 92.89L2044-48z"/><path fill-opacity=".28" fill="#EBEBEB" mask="url(#c)" d="M735-85L478 336 369 125z"/><path fill="url(#j)" mask="url(#c)" d="M122 23l247 102 109 211z"/><path fill="url(#k)" mask="url(#c)" d="M122 23l356 313-306.26-114.59z"/><path fill-opacity=".28" fill="#EBEBEB" mask="url(#c)" d="M122 23l-323.84 332.3L-.68 280.08l172.42-58.67z"/><path fill="url(#l)" mask="url(#c)" d="M-324.75 145.3L122 23l-322.16 331.45z"/><path fill="url(#m)" mask="url(#c)" d="M2231 147l453.15-124.28L2357 356z"/><path fill-opacity=".28" fill="#EBEBEB" mask="url(#c)" d="M2682.5 24.52L2357 356l373.94-139.45z"/><path fill="url(#n)" mask="url(#c)" d="M1666.44 334.89l-294.31-91.25L1314 37z"/><path fill="url(#o)" mask="url(#c)" d="M1508.15 201.13L2044-48l-377.56 382.89z"/></g></svg>